<svg style="position: absolute; width: 0; height: 0; overflow: hidden;" version="1.1" xmlns="http://www.w3.org/2000/svg" xmlns:xlink="http://www.w3.org/1999/xlink">
<defs>
<symbol id="icon-newspaper" viewBox="0 0 16 16">
<title>newspaper</title>
<path class="path1" d="M14 4v-2h-14v11c0 0.552 0.448 1 1 1h13.5c0.828 0 1.5-0.672 1.5-1.5v-8.5h-2zM13 13h-12v-10h12v10zM2 5h10v1h-10zM8 7h4v1h-4zM8 9h4v1h-4zM8 11h3v1h-3zM2 7h5v5h-5z"></path>
</symbol>
<symbol id="icon-pencil" viewBox="0 0 16 16">
<title>pencil</title>
<path class="path1" d="M13.5 0c1.381 0 2.5 1.119 2.5 2.5 0 0.563-0.186 1.082-0.5 1.5l-1 1-3.5-3.5 1-1c0.418-0.314 0.937-0.5 1.5-0.5zM1 11.5l-1 4.5 4.5-1 9.25-9.25-3.5-3.5-9.25 9.25zM11.181 5.681l-7 7-0.862-0.862 7-7 0.862 0.862z"></path>
</symbol>
<symbol id="icon-price-tags" viewBox="0 0 20 16">
<title>price-tags</title>
<path class="path1" d="M19.25 0h-6c-0.412 0-0.989 0.239-1.28 0.53l-7.439 7.439c-0.292 0.292-0.292 0.769 0 1.061l6.439 6.439c0.292 0.292 0.769 0.292 1.061 0l7.439-7.439c0.292-0.292 0.53-0.868 0.53-1.28v-6c0-0.412-0.337-0.75-0.75-0.75zM15.5 6c-0.828 0-1.5-0.672-1.5-1.5s0.672-1.5 1.5-1.5 1.5 0.672 1.5 1.5-0.672 1.5-1.5 1.5z"></path>
<path class="path2" d="M2 8.5l8.5-8.5h-1.25c-0.412 0-0.989 0.239-1.28 0.53l-7.439 7.439c-0.292 0.292-0.292 0.769 0 1.061l6.439 6.439c0.292 0.292 0.769 0.292 1.061 0l0.47-0.47-6.5-6.5z"></path>
</symbol>
<symbol id="icon-bubbles4" viewBox="0 0 18 16">
<title>bubbles4</title>
<path class="path1" d="M7.5 2c-0.792 0-1.556 0.124-2.272 0.369-0.671 0.23-1.267 0.554-1.773 0.963-0.938 0.759-1.455 1.731-1.455 2.737 0 0.562 0.157 1.109 0.467 1.623 0.323 0.537 0.811 1.028 1.41 1.421 0.476 0.312 0.796 0.812 0.881 1.374 0.014 0.094 0.025 0.188 0.034 0.282 0.043-0.039 0.085-0.080 0.127-0.122 0.377-0.376 0.886-0.583 1.411-0.583 0.084 0 0.167 0.005 0.251 0.016 0.303 0.038 0.611 0.058 0.918 0.058 0.792 0 1.556-0.124 2.272-0.369 0.671-0.23 1.267-0.554 1.774-0.963 0.938-0.759 1.455-1.731 1.455-2.737s-0.517-1.978-1.455-2.737c-0.506-0.41-1.103-0.734-1.774-0.963-0.716-0.245-1.48-0.369-2.272-0.369zM7.5 0v0c4.142 0 7.5 2.717 7.5 6.069s-3.358 6.069-7.5 6.069c-0.398 0-0.788-0.025-1.169-0.074-1.611 1.605-3.471 1.892-5.331 1.935v-0.393c1.004-0.49 1.813-1.382 1.813-2.402 0-0.142-0.011-0.282-0.032-0.419-1.696-1.113-2.781-2.812-2.781-4.717 0-3.352 3.358-6.069 7.5-6.069zM15.563 13.604c0 0.874 0.567 1.639 1.438 2.059v0.337c-1.611-0.036-3.090-0.283-4.487-1.658-0.33 0.041-0.669 0.063-1.013 0.063-1.492 0-2.866-0.402-3.963-1.079 2.261-0.008 4.395-0.732 6.013-2.042 0.816-0.66 1.459-1.435 1.913-2.302 0.481-0.92 0.724-1.9 0.724-2.913 0-0.163-0.007-0.326-0.020-0.487 1.134 0.936 1.832 2.213 1.832 3.62 0 1.633-0.94 3.089-2.41 4.043-0.018 0.117-0.027 0.237-0.027 0.359z"></path>
</symbol>
<symbol id="icon-user" viewBox="0 0 16 16">
<title>user</title>
<path class="path1" d="M9 11.041v-0.825c1.102-0.621 2-2.168 2-3.716 0-2.485 0-4.5-3-4.5s-3 2.015-3 4.5c0 1.548 0.898 3.095 2 3.716v0.825c-3.392 0.277-6 1.944-6 3.959h14c0-2.015-2.608-3.682-6-3.959z"></path>
</symbol>
<symbol id="icon-search" viewBox="0 0 16 16">
<title>search</title>
<path class="path1" d="M15.504 13.616l-3.79-3.223c-0.392-0.353-0.811-0.514-1.149-0.499 0.895-1.048 1.435-2.407 1.435-3.893 0-3.314-2.686-6-6-6s-6 2.686-6 6 2.686 6 6 6c1.486 0 2.845-0.54 3.893-1.435-0.016 0.338 0.146 0.757 0.499 1.149l3.223 3.79c0.552 0.613 1.453 0.665 2.003 0.115s0.498-1.452-0.115-2.003zM6 10c-2.209 0-4-1.791-4-4s1.791-4 4-4 4 1.791 4 4-1.791 4-4 4z"></path>
</symbol>
<symbol id="icon-bin" viewBox="0 0 16 16">
<title>bin</title>
<path class="path1" d="M2 5v10c0 0.55 0.45 1 1 1h9c0.55 0 1-0.45 1-1v-10h-11zM5 14h-1v-7h1v7zM7 14h-1v-7h1v7zM9 14h-1v-7h1v7zM11 14h-1v-7h1v7z"></path>
<path class="path2" d="M13.25 2h-3.25v-1.25c0-0.412-0.338-0.75-0.75-0.75h-3.5c-0.412 0-0.75 0.338-0.75 0.75v1.25h-3.25c-0.413 0-0.75 0.337-0.75 0.75v1.25h13v-1.25c0-0.413-0.338-0.75-0.75-0.75zM9 2h-3v-0.987h3v0.987z"></path>
</symbol>
<symbol id="icon-switch" viewBox="0 0 16 16">
<title>switch</title>
<path class="path1" d="M10 2.29v2.124c0.566 0.247 1.086 0.6 1.536 1.050 0.944 0.944 1.464 2.2 1.464 3.536s-0.52 2.591-1.464 3.536c-0.944 0.944-2.2 1.464-3.536 1.464s-2.591-0.52-3.536-1.464c-0.944-0.944-1.464-2.2-1.464-3.536s0.52-2.591 1.464-3.536c0.45-0.45 0.97-0.803 1.536-1.050v-2.124c-2.891 0.861-5 3.539-5 6.71 0 3.866 3.134 7 7 7s7-3.134 7-7c0-3.171-2.109-5.849-5-6.71zM7 0h2v8h-2z"></path>
</symbol>
<symbol id="icon-link" viewBox="0 0 16 16">
<title>link</title>
<path class="path1" d="M6.879 9.934c-0.208 0-0.416-0.079-0.575-0.238-1.486-1.486-1.486-3.905 0-5.392l3-3c0.72-0.72 1.678-1.117 2.696-1.117s1.976 0.397 2.696 1.117c1.486 1.487 1.486 3.905 0 5.392l-1.371 1.371c-0.317 0.317-0.832 0.317-1.149 0s-0.317-0.832 0-1.149l1.371-1.371c0.853-0.853 0.853-2.241 0-3.094-0.413-0.413-0.963-0.641-1.547-0.641s-1.134 0.228-1.547 0.641l-3 3c-0.853 0.853-0.853 2.241 0 3.094 0.317 0.317 0.317 0.832 0 1.149-0.159 0.159-0.367 0.238-0.575 0.238z"></path>
<path class="path2" d="M4 15.813c-1.018 0-1.976-0.397-2.696-1.117-1.486-1.486-1.486-3.905 0-5.392l1.371-1.371c0.317-0.317 0.832-0.317 1.149 0s0.317 0.832 0 1.149l-1.371 1.371c-0.853 0.853-0.853 2.241 0 3.094 0.413 0.413 0.962 0.641 1.547 0.641s1.134-0.228 1.547-0.641l3-3c0.853-0.853 0.853-2.241 0-3.094-0.317-0.317-0.317-0.832 0-1.149s0.832-0.317 1.149 0c1.486 1.486 1.486 3.905 0 5.392l-3 3c-0.72 0.72-1.678 1.117-2.696 1.117z"></path>
</symbol>
<symbol id="icon-heart" viewBox="0 0 16 16">
<title>heart</title>
<path class="path1" d="M11.8 1c-1.682 0-3.129 1.368-3.799 2.797-0.671-1.429-2.118-2.797-3.8-2.797-2.318 0-4.2 1.882-4.2 4.2 0 4.716 4.758 5.953 8 10.616 3.065-4.634 8-6.050 8-10.616 0-2.319-1.882-4.2-4.2-4.2z"></path>
</symbol>
<symbol id="icon-plus" viewBox="0 0 16 16">
<title>plus</title>
<path class="path1" d="M15.5 6h-5.5v-5.5c0-0.276-0.224-0.5-0.5-0.5h-3c-0.276 0-0.5 0.224-0.5 0.5v5.5h-5.5c-0.276 0-0.5 0.224-0.5 0.5v3c0 0.276 0.224 0.5 0.5 0.5h5.5v5.5c0 0.276 0.224 0.5 0.5 0.5h3c0.276 0 0.5-0.224 0.5-0.5v-5.5h5.5c0.276 0 0.5-0.224 0.5-0.5v-3c0-0.276-0.224-0.5-0.5-0.5z"></path>
</symbol>
<symbol id="icon-github" viewBox="0 0 16 16">
<title>github</title>
<path class="path1" d="M8 0.198c-4.418 0-8 3.582-8 8 0 3.535 2.292 6.533 5.471 7.591 0.4 0.074 0.547-0.174 0.547-0.385 0-0.191-0.008-0.821-0.011-1.489-2.226 0.484-2.695-0.944-2.695-0.944-0.364-0.925-0.888-1.171-0.888-1.171-0.726-0.497 0.055-0.486 0.055-0.486 0.803 0.056 1.226 0.824 1.226 0.824 0.714 1.223 1.872 0.869 2.328 0.665 0.072-0.517 0.279-0.87 0.508-1.070-1.777-0.202-3.645-0.888-3.645-3.954 0-0.873 0.313-1.587 0.824-2.147-0.083-0.202-0.357-1.015 0.077-2.117 0 0 0.672-0.215 2.201 0.82 0.638-0.177 1.322-0.266 2.002-0.269 0.68 0.003 1.365 0.092 2.004 0.269 1.527-1.035 2.198-0.82 2.198-0.82 0.435 1.102 0.162 1.916 0.079 2.117 0.513 0.56 0.823 1.274 0.823 2.147 0 3.073-1.872 3.749-3.653 3.947 0.287 0.248 0.543 0.735 0.543 1.481 0 1.070-0.009 1.932-0.009 2.195 0 0.213 0.144 0.462 0.55 0.384 3.177-1.059 5.466-4.057 5.466-7.59 0-4.418-3.582-8-8-8z"></path>
</symbol>
</defs>
</svg>
